<svg width="22.000000" height="21.999878" viewBox="0 0 22 21.9999" fill="none" xmlns="http://www.w3.org/2000/svg" xmlns:xlink="http://www.w3.org/1999/xlink">
	<desc>
			Created with Pixso.
	</desc>
	<defs/>
	<path id="Vector" d="M16.04 13.18C15.76 13.04 14.42 12.38 14.16 12.29C13.91 12.2 13.73 12.15 13.55 12.43C13.37 12.7 12.84 13.31 12.68 13.5C12.52 13.68 12.36 13.7 12.09 13.56C11.28 13.24 10.54 12.79 9.89 12.21C9.29 11.66 8.78 11.02 8.37 10.32C8.21 10.05 8.35 9.9 8.49 9.77C8.61 9.65 8.76 9.45 8.9 9.29C9.01 9.15 9.1 9 9.17 8.84C9.21 8.76 9.22 8.68 9.22 8.59C9.22 8.51 9.19 8.43 9.15 8.36C9.08 8.22 8.53 6.88 8.3 6.34C8.08 5.8 7.86 5.88 7.69 5.87C7.53 5.86 7.35 5.86 7.16 5.86C7.02 5.86 6.89 5.89 6.76 5.95C6.64 6.01 6.52 6.1 6.43 6.2C6.12 6.49 5.88 6.84 5.71 7.24C5.55 7.63 5.47 8.05 5.47 8.47C5.56 9.5 5.95 10.48 6.59 11.29C7.77 13.04 9.38 14.46 11.27 15.4C11.78 15.62 12.3 15.81 12.83 15.98C13.39 16.15 13.98 16.18 14.55 16.09C14.93 16.01 15.29 15.85 15.61 15.63C15.93 15.41 16.2 15.12 16.4 14.79C16.58 14.38 16.63 13.93 16.56 13.5C16.49 13.38 16.31 13.31 16.04 13.18ZM18.79 3.19C16.91 1.32 14.41 0.19 11.76 0.02C9.11 -0.15 6.49 0.64 4.38 2.25C2.27 3.86 0.82 6.17 0.3 8.77C-0.22 11.36 0.22 14.05 1.55 16.35L0 21.99L5.8 20.48C7.41 21.35 9.21 21.81 11.04 21.81L11.04 21.81C13.21 21.81 15.33 21.17 17.13 19.97C18.93 18.77 20.33 17.07 21.16 15.07C21.99 13.08 22.21 10.89 21.79 8.77C21.36 6.66 20.32 4.71 18.79 3.19L18.79 3.19ZM15.88 18.58C14.43 19.48 12.75 19.96 11.04 19.96L11.04 19.96C9.41 19.96 7.81 19.53 6.4 18.7L6.07 18.5L2.62 19.4L3.54 16.06L3.33 15.72C2.37 14.2 1.89 12.43 1.94 10.64C1.99 8.85 2.58 7.11 3.62 5.65C4.66 4.19 6.12 3.07 7.8 2.43C9.49 1.8 11.32 1.67 13.08 2.07C14.83 2.47 16.43 3.38 17.66 4.68C18.9 5.99 19.72 7.62 20.02 9.39C20.32 11.16 20.09 12.98 19.35 14.61C18.61 16.25 17.4 17.63 15.88 18.58Z" fill="#000000" fill-opacity="1.000000" fill-rule="nonzero"/>
</svg>
