<svg width="18.333496" height="14.924438" viewBox="0 0 18.3335 14.9244" fill="none" xmlns="http://www.w3.org/2000/svg" xmlns:xlink="http://www.w3.org/1999/xlink">
	<desc>
			Created with Pixso.
	</desc>
	<defs/>
	<path id="Vector" d="M18.33 1.78C17.64 2.08 16.91 2.28 16.16 2.37C16.95 1.9 17.54 1.16 17.82 0.29C17.08 0.73 16.28 1.04 15.43 1.21C14.87 0.59 14.12 0.19 13.3 0.05C12.48 -0.09 11.63 0.05 10.9 0.44C10.16 0.83 9.58 1.46 9.24 2.21C8.9 2.97 8.82 3.82 9.02 4.63C7.52 4.56 6.06 4.17 4.72 3.49C3.39 2.81 2.21 1.86 1.27 0.7C0.94 1.28 0.76 1.93 0.77 2.6C0.76 3.22 0.92 3.83 1.21 4.37C1.5 4.92 1.92 5.38 2.43 5.72C1.84 5.71 1.25 5.55 0.73 5.26L0.73 5.3C0.73 6.17 1.04 7.01 1.59 7.68C2.14 8.34 2.9 8.8 3.75 8.97C3.43 9.07 3.09 9.12 2.75 9.13C2.51 9.12 2.27 9.1 2.04 9.06C2.28 9.81 2.75 10.46 3.38 10.92C4.01 11.39 4.77 11.65 5.55 11.66C4.23 12.71 2.59 13.27 0.91 13.28C0.61 13.28 0.3 13.26 0 13.22C1.71 14.33 3.72 14.92 5.76 14.92C7.17 14.93 8.57 14.67 9.88 14.13C11.19 13.6 12.37 12.81 13.37 11.82C14.37 10.82 15.16 9.63 15.7 8.33C16.24 7.02 16.51 5.62 16.5 4.21C16.5 4.06 16.5 3.89 16.5 3.73C17.21 3.19 17.83 2.53 18.33 1.78Z" fill="#000000" fill-opacity="1.000000" fill-rule="nonzero"/>
</svg>
