<svg width="20.166016" height="18.419312" viewBox="0 0 20.166 18.4193" fill="none" xmlns="http://www.w3.org/2000/svg" xmlns:xlink="http://www.w3.org/1999/xlink">
	<desc>
			Created with Pixso.
	</desc>
	<defs/>
	<path id="Vector" d="M19.49 0.43C19.23 0.21 18.91 0.07 18.58 0.02C18.24 -0.03 17.9 0 17.58 0.13L1.16 6.76C0.8 6.91 0.5 7.16 0.3 7.48C0.09 7.79 -0.01 8.17 0 8.55C0.01 8.93 0.13 9.29 0.36 9.6C0.58 9.91 0.89 10.14 1.25 10.26L4.57 11.42L6.43 17.54C6.45 17.63 6.49 17.7 6.53 17.78C6.54 17.79 6.55 17.8 6.56 17.81C6.61 17.88 6.68 17.95 6.75 18C6.77 18.02 6.79 18.04 6.82 18.05C6.9 18.11 7 18.15 7.1 18.17L7.11 18.18L7.12 18.18C7.18 18.19 7.24 18.2 7.3 18.2C7.31 18.2 7.32 18.19 7.32 18.19C7.42 18.19 7.51 18.18 7.6 18.15C7.62 18.14 7.64 18.13 7.66 18.12C7.72 18.09 7.79 18.06 7.84 18.01C7.89 17.97 7.94 17.94 7.98 17.9L10.46 15.16L14.15 18.02C14.48 18.28 14.88 18.41 15.29 18.41C15.72 18.41 16.14 18.26 16.48 17.99C16.81 17.72 17.04 17.34 17.13 16.92L20.12 2.24C20.19 1.91 20.17 1.56 20.06 1.24C19.94 0.93 19.75 0.64 19.49 0.43ZM7.67 11.71C7.54 11.84 7.45 12 7.42 12.18L7.13 13.55L6.42 11.18L10.14 9.24L7.67 11.71ZM15.28 16.57L10.91 13.19C10.73 13.05 10.5 12.98 10.27 13C10.04 13.02 9.83 13.13 9.67 13.3L8.88 14.18L9.16 12.81L15.65 6.32C15.81 6.17 15.9 5.96 15.92 5.74C15.93 5.52 15.87 5.31 15.74 5.13C15.61 4.95 15.42 4.83 15.21 4.78C15 4.73 14.77 4.76 14.58 4.86L5.26 9.71L1.85 8.46L18.33 1.87L15.28 16.57Z" fill="#000000" fill-opacity="1.000000" fill-rule="nonzero"/>
</svg>
