<svg width="24.000000" height="24.000000" viewBox="0 0 24 24" fill="none" xmlns="http://www.w3.org/2000/svg" xmlns:xlink="http://www.w3.org/1999/xlink">
	<desc>
			Created with Pixso.
	</desc>
	<defs>
		<filter id="filter_30_988_dd" x="-2.000000" y="6.000000" width="28.000000" height="20.000000" filterUnits="userSpaceOnUse" color-interpolation-filters="sRGB">
			<feFlood flood-opacity="0" result="BackgroundImageFix"/>
			<feColorMatrix in="SourceAlpha" type="matrix" values="0 0 0 0 0 0 0 0 0 0 0 0 0 0 0 0 0 0 127 0" result="hardAlpha"/>
			<feOffset dx="0" dy="4"/>
			<feGaussianBlur stdDeviation="1.33333"/>
			<feComposite in2="hardAlpha" operator="out" k2="-1" k3="1"/>
			<feColorMatrix type="matrix" values="0 0 0 0 0 0 0 0 0 0 0 0 0 0 0 0 0 0 0.25 0"/>
			<feBlend mode="normal" in2="BackgroundImageFix" result="effect_dropShadow_1"/>
			<feBlend mode="normal" in="SourceGraphic" in2="effect_dropShadow_1" result="shape"/>
		</filter>
		<clipPath id="clip1849_952">
			<rect id="u:bars" width="24.000000" height="24.000000" fill="white" fill-opacity="0"/>
		</clipPath>
	</defs>
	<rect id="u:bars" width="24.000000" height="24.000000" fill="#FFFFFF" fill-opacity="0"/>
	<g clip-path="url(#clip1849_952)">
		<g filter="url(#filter_30_988_dd)">
			<path id="Vector" d="M3 8L21 8C21.2652 8 21.5196 7.89453 21.7071 7.70703C21.8947 7.51953 22 7.26514 22 7C22 6.73486 21.8947 6.48047 21.7071 6.29297C21.5196 6.10547 21.2652 6 21 6L3 6C2.73477 6 2.48044 6.10547 2.29291 6.29297C2.10535 6.48047 2 6.73486 2 7C2 7.26514 2.10535 7.51953 2.29291 7.70703C2.48044 7.89453 2.73477 8 3 8ZM21 16L3 16C2.73477 16 2.48044 16.1055 2.29291 16.293C2.10535 16.4805 2 16.7349 2 17C2 17.2651 2.10535 17.5195 2.29291 17.707C2.48044 17.8945 2.73477 18 3 18L21 18C21.2652 18 21.5196 17.8945 21.7071 17.707C21.8947 17.5195 22 17.2651 22 17C22 16.7349 21.8947 16.4805 21.7071 16.293C21.5196 16.1055 21.2652 16 21 16ZM21 11L3 11C2.73477 11 2.48044 11.1055 2.29291 11.293C2.10535 11.4805 2 11.7349 2 12C2 12.2651 2.10535 12.5195 2.29291 12.707C2.48044 12.8945 2.73477 13 3 13L21 13C21.2652 13 21.5196 12.8945 21.7071 12.707C21.8947 12.5195 22 12.2651 22 12C22 11.7349 21.8947 11.4805 21.7071 11.293C21.5196 11.1055 21.2652 11 21 11Z" fill="#F5F5F5" fill-opacity="1.000000" fill-rule="nonzero"/>
		</g>
		<path id="Vector" d="M3 8L21 8C21.2652 8 21.5196 7.89453 21.7071 7.70703C21.8947 7.51953 22 7.26514 22 7C22 6.73486 21.8947 6.48047 21.7071 6.29297C21.5196 6.10547 21.2652 6 21 6L3 6C2.73477 6 2.48044 6.10547 2.29291 6.29297C2.10535 6.48047 2 6.73486 2 7C2 7.26514 2.10535 7.51953 2.29291 7.70703C2.48044 7.89453 2.73477 8 3 8ZM21 11L3 11C2.73477 11 2.48044 11.1055 2.29291 11.293C2.10535 11.4805 2 11.7349 2 12C2 12.2651 2.10535 12.5195 2.29291 12.707C2.48044 12.8945 2.73477 13 3 13L21 13C21.2652 13 21.5196 12.8945 21.7071 12.707C21.8947 12.5195 22 12.2651 22 12C22 11.7349 21.8947 11.4805 21.7071 11.293C21.5196 11.1055 21.2652 11 21 11ZM21 16L3 16C2.73477 16 2.48044 16.1055 2.29291 16.293C2.10535 16.4805 2 16.7349 2 17C2 17.2651 2.10535 17.5195 2.29291 17.707C2.48044 17.8945 2.73477 18 3 18L21 18C21.2652 18 21.5196 17.8945 21.7071 17.707C21.8947 17.5195 22 17.2651 22 17C22 16.7349 21.8947 16.4805 21.7071 16.293C21.5196 16.1055 21.2652 16 21 16Z" fill="#DBDBDB" fill-opacity="1.000000" fill-rule="evenodd"/>
	</g>
</svg>
