<svg width="19.846191" height="19.866089" viewBox="0 0 19.8462 19.8661" fill="none" xmlns="http://www.w3.org/2000/svg" xmlns:xlink="http://www.w3.org/1999/xlink">
	<desc>
			Created with Pixso.
	</desc>
	<defs/>
	<path id="Vector" d="M7.87 15.54L6.1 17.26C5.63 17.72 5 17.99 4.35 17.99C3.69 17.99 3.06 17.72 2.6 17.26C2.13 16.8 1.87 16.17 1.87 15.51C1.87 14.85 2.13 14.22 2.6 13.76L7.14 9.21C7.58 8.76 8.18 8.5 8.81 8.49C9.44 8.47 10.06 8.7 10.53 9.12L10.65 9.22C10.84 9.41 11.09 9.51 11.36 9.51C11.62 9.5 11.88 9.39 12.06 9.21C12.25 9.02 12.35 8.76 12.35 8.49C12.34 8.23 12.24 7.98 12.05 7.79C11.99 7.72 11.93 7.65 11.87 7.58C11.01 6.84 9.91 6.45 8.78 6.49C7.65 6.53 6.57 7 5.78 7.8L1.18 12.35C0.39 13.2 -0.03 14.32 0 15.48C0.02 16.63 0.49 17.73 1.31 18.55C2.12 19.37 3.22 19.84 4.38 19.86C5.54 19.88 6.66 19.46 7.51 18.68L9.24 16.99C9.41 16.8 9.5 16.56 9.5 16.31C9.5 16.05 9.4 15.81 9.23 15.63C9.05 15.44 8.82 15.33 8.56 15.32C8.31 15.3 8.06 15.38 7.87 15.54ZM18.56 1.3C17.71 0.46 16.58 0 15.39 0C14.21 0 13.07 0.46 12.23 1.3L10.5 2.99C10.33 3.18 10.23 3.42 10.23 3.67C10.24 3.93 10.33 4.17 10.51 4.35C10.68 4.54 10.92 4.65 11.17 4.66C11.42 4.68 11.67 4.6 11.87 4.44L13.6 2.72C14.06 2.26 14.69 2 15.35 2C16 2 16.63 2.26 17.1 2.72C17.56 3.18 17.82 3.81 17.82 4.47C17.82 5.13 17.56 5.76 17.1 6.22L12.56 10.77C12.11 11.22 11.51 11.48 10.88 11.49C10.25 11.51 9.63 11.28 9.17 10.86L9.05 10.76C8.86 10.57 8.6 10.47 8.34 10.47C8.07 10.48 7.82 10.59 7.63 10.78C7.45 10.96 7.34 11.22 7.35 11.49C7.35 11.75 7.46 12 7.65 12.19C7.72 12.26 7.8 12.33 7.88 12.4C8.73 13.14 9.83 13.53 10.96 13.49C12.09 13.45 13.17 12.98 13.97 12.18L18.52 7.63C19.36 6.79 19.83 5.66 19.84 4.47C19.85 3.29 19.39 2.15 18.56 1.3Z" fill="#000000" fill-opacity="1.000000" fill-rule="nonzero"/>
</svg>
