<svg width="16.011597" height="16.010010" viewBox="0 0 16.0116 16.01" fill="none" xmlns="http://www.w3.org/2000/svg" xmlns:xlink="http://www.w3.org/1999/xlink">
	<desc>
			Created with Pixso.
	</desc>
	<defs/>
	<path id="Vector" d="M9.4158 8.00415L15.7158 1.71411C15.9041 1.52588 16.0099 1.27051 16.0099 1.00415C16.0099 0.737793 15.9041 0.482422 15.7158 0.294189C15.5275 0.105713 15.2721 0 15.0058 0C14.7395 0 14.4841 0.105713 14.2958 0.294189L8.0058 6.59399L1.7158 0.294189C1.5275 0.105713 1.2721 0 1.0058 0C0.739498 0 0.4841 0.105713 0.295799 0.294189C0.107494 0.482422 0.00170517 0.737793 0.00170517 1.00415C0.00170517 1.27051 0.107494 1.52588 0.295799 1.71411L6.5958 8.00415L0.295799 14.2942C0.202068 14.387 0.127674 14.4976 0.0769081 14.6196C0.0261383 14.7415 0 14.8721 0 15.0042C0 15.136 0.0261383 15.2668 0.0769081 15.3887C0.127674 15.5105 0.202068 15.6211 0.295799 15.7141C0.38876 15.8079 0.499363 15.8823 0.621223 15.9331C0.74308 15.9836 0.873787 16.01 1.0058 16.01C1.13781 16.01 1.26852 15.9836 1.39037 15.9331C1.51223 15.8823 1.62284 15.8079 1.7158 15.7141L8.0058 9.41406L14.2958 15.7141C14.3888 15.8079 14.4994 15.8823 14.6212 15.9331C14.7431 15.9836 14.8738 16.01 15.0058 16.01C15.1378 16.01 15.2685 15.9836 15.3904 15.9331C15.5122 15.8823 15.6228 15.8079 15.7158 15.7141C15.8095 15.6211 15.8839 15.5105 15.9347 15.3887C15.9855 15.2668 16.0116 15.136 16.0116 15.0042C16.0116 14.8721 15.9855 14.7415 15.9347 14.6196C15.8839 14.4976 15.8095 14.387 15.7158 14.2942L9.4158 8.00415Z" fill="#07416B" fill-opacity="1.000000" fill-rule="nonzero"/>
</svg>
