<svg width="12" height="12" viewBox="0 0 12 12" fill="none" xmlns="http://www.w3.org/2000/svg">
<path d="M3.69579 2.89936V0.719482M8.05553 2.89936V0.719482M3.15082 5.07923H8.6005M2.06088 10.5289H9.69044C9.97951 10.5289 10.2567 10.4141 10.4611 10.2097C10.6655 10.0053 10.7804 9.72804 10.7804 9.43897V2.89936C10.7804 2.61029 10.6655 2.33306 10.4611 2.12865C10.2567 1.92425 9.97951 1.80942 9.69044 1.80942H2.06088C1.77181 1.80942 1.49458 1.92425 1.29018 2.12865C1.08578 2.33306 0.970947 2.61029 0.970947 2.89936V9.43897C0.970947 9.72804 1.08578 10.0053 1.29018 10.2097C1.49458 10.4141 1.77181 10.5289 2.06088 10.5289Z" stroke="#07416B" stroke-width="1.08994" stroke-linecap="round" stroke-linejoin="round"/>
</svg>
