<?xml version="1.0" encoding="UTF-8"?>
<svg id="_Слой_2" data-name="Слой 2" xmlns="http://www.w3.org/2000/svg" viewBox="0 0 506.66 234.38">
  <defs>
    <style>
      .cls-1 {
        fill: #050606;
      }

      .cls-2 {
        fill: #efca58;
      }
    </style>
  </defs>
  <g id="_Слой_1-2" data-name="Слой 1">
    <g>
      <path class="cls-2" d="M477.17,50.51c-.97,.59-1.05,1.34-1.29,2-6.18,17.21-12.36,34.43-18.54,51.64-3.37,9.4-6.75,18.79-10.13,28.18-.76,2.1-.77,2.1-3.09,2.11-5.36,0-10.71,0-16.07,0-2.76,0-2.79,0-3.72-2.64-3.75-10.53-7.47-21.08-11.22-31.61-5.68-15.95-11.37-31.89-17.07-47.84-.23-.64-.22-1.47-1.21-1.72-.67,.71-.39,1.62-.39,2.43-.02,8.48-.01,16.95-.01,25.43,0,17.59,0,35.18,0,52.77,0,.64-.02,1.28,0,1.92,.04,.94-.45,1.29-1.32,1.26-.4-.01-.8,0-1.2,0-8,0-15.99,0-23.99,0-2.59,0-2.61-.01-2.61-2.45,0-42.62,0-85.23,0-127.85,0-.48,0-.96,.05-1.44,.06-.64,.4-1.02,1.08-1.03,.56,0,1.12-.02,1.68-.02,9.51,0,19.03,0,28.54,0,2.33,0,2.31,.01,3.11,2.04,7.94,20.22,15.88,40.44,23.82,60.66,3.88,9.89,7.75,19.78,11.62,29.67,.17,.44,.38,.86,.73,1.67,.93-2.28,1.75-4.22,2.52-6.19,6.38-16.2,12.76-32.4,19.13-48.6,4.86-12.34,9.72-24.67,14.57-37.01,.88-2.24,.88-2.25,3.25-2.25,9.59,0,19.19,0,28.78,0,.4,0,.8,.02,1.2,0,.92-.04,1.3,.41,1.27,1.3-.02,.56,0,1.12,0,1.68,0,42.22,0,84.43,0,126.65,0,3.01,.5,3.17-3.1,3.16-7.68-.02-15.35,0-23.03,0-.56,0-1.12,0-1.68-.01-.86-.01-1.34-.42-1.33-1.32,0-.64,0-1.28,0-1.92,0-25.91,0-51.81,0-77.72,0-.91,.18-1.87-.32-2.96Z"/>
      <path class="cls-2" d="M126.12,68.57c-.19,12.76-2.24,25.12-8.14,36.6-1.09,2.13-2.33,4.19-3.66,6.18-.67,1-.63,1.6,.21,2.44,2.38,2.37,4.69,4.81,7,7.24,1.25,1.32,1.27,1.38-.08,2.67-4.68,4.48-9.34,8.97-14.11,13.35-1.76,1.62-1.43,1.92-3.37-.01-2.43-2.43-4.91-4.81-7.28-7.31-.95-1-1.72-1.03-2.92-.44-9.71,4.8-20.04,6.75-30.83,6.74-10.72-.02-20.95-1.98-30.57-6.81-10.17-5.1-17.89-12.75-23.38-22.68-4.5-8.15-7.02-16.92-8.13-26.14-.63-5.16-1.02-10.34-.82-15.53,.52-13.26,3.09-25.99,10.07-37.52C16.97,16.04,26.72,8.3,39.15,3.87,45.75,1.52,52.56,.41,59.55,.09c9.69-.44,19.14,.64,28.26,3.98,12.74,4.67,22.47,12.96,29.11,24.79,4.68,8.33,7.27,17.34,8.34,26.81,.49,4.29,.89,8.58,.86,12.9Zm-50.61,40.01c-.24-.93-.96-1.36-1.51-1.91-4.94-5-9.91-9.98-14.86-14.97-1.59-1.61-1.6-1.65,0-3.18,4.72-4.54,9.46-9.06,14.2-13.59,.23-.22,.46-.44,.71-.64,.44-.35,.88-.32,1.29,.05,.47,.44,.92,.89,1.37,1.34,4.45,4.48,8.89,8.97,13.35,13.44,.55,.55,.99,1.26,1.89,1.56,.18-.35,.4-.67,.52-1.03,1.65-4.86,2.58-9.86,3.03-14.97,.35-3.99,.28-7.95,.04-11.95-.4-6.51-1.5-12.85-4.06-18.86-3.62-8.48-9.42-14.73-18.51-17.49-3.88-1.18-7.84-1.45-11.85-1.26-10.51,.49-18.61,5.12-24.1,14.15-4,6.56-5.63,13.84-6.35,21.38-.39,4.14-.34,8.27-.08,12.43,.41,6.5,1.49,12.85,4.04,18.86,3.03,7.14,7.7,12.85,14.86,16.23,5.34,2.51,11.02,3.24,16.82,2.74,3.15-.28,6.33-.79,9.21-2.33Z"/>
      <path class="cls-2" d="M278.67,73.19c2.49,1.49,4.94,2.64,7.16,4.21,5.95,4.19,9.89,9.69,11.34,16.87,.44,2.19,.76,4.4,.76,6.65,.01,5.76-.07,11.52,.1,17.27,.11,4.06,.42,8.14,1.86,12.02,.17,.45,.32,.9,.49,1.35q1.13,2.88-1.86,2.88c-7.84,0-15.68-.06-23.51,.04-1.85,.02-2.75-.69-3.38-2.31-1.45-3.76-2.34-7.65-2.44-11.67-.14-5.04-.1-10.07-.14-15.11-.01-2.24-.12-4.5-.63-6.67-1.62-6.93-6.26-10.72-13.05-12.1-1.87-.38-3.78-.52-5.72-.51-9.44,.04-18.87,.01-28.31,.02-2.47,0-2.49,.02-2.49,2.56,0,14.07,0,28.15,0,42.22,0,.56,.01,1.12,0,1.68-.06,1.76-.06,1.82-1.72,1.83-8.48,.02-16.95,.02-25.43,0-1.69,0-1.69-.06-1.74-1.78-.01-.4,0-.8,0-1.2,0-42.22,0-84.45,0-126.67,0-3.49-.31-3.12,3.05-3.12,19.03,0,38.07-.03,57.1,.04,7.15,.03,14.16,1.18,20.93,3.54,7.66,2.66,14.17,6.98,18.95,13.66,3.03,4.23,4.88,8.97,5.81,14.06,1.16,6.36,1.21,12.71-.47,19-2.24,8.37-7.49,14.51-14.4,19.42-.7,.5-1.56,.82-2.24,1.81Zm-59.81-28.2c0,5.36,0,10.71,0,16.07,0,2.41,.01,2.43,2.3,2.43,8.63,0,17.27,.03,25.9-.02,3.04-.02,6.04-.47,8.97-1.35,4.98-1.51,8.23-4.77,9.67-9.76,.89-3.09,1.24-6.28,.97-9.49-.35-4.13-1.33-8.01-4.43-11.09-3.78-3.74-8.56-4.97-13.58-5.08-9.27-.21-18.55-.08-27.82-.07-1.93,0-1.96,.04-1.97,2.04-.02,5.44,0,10.87,0,16.31Z"/>
      <path class="cls-2" d="M141.14,67.87c0-21.1,0-42.21,0-63.31,0-3.14-.22-2.9,2.79-2.9,7.83,0,15.67,0,23.5,0,.56,0,1.12,.02,1.68,0,.8-.01,1.17,.37,1.15,1.16-.01,.56,0,1.12,0,1.68,0,42.37,0,84.74,0,127.11,0,.24,0,.48,0,.72-.03,2.08-.03,2.1-2.15,2.11-8.15,.01-16.31,0-24.46,0-2.51,0-2.52-.02-2.52-2.54,0-21.34,0-42.69,0-64.03Z"/>
      <path class="cls-2" d="M316.68,68.05V5.22c0-.4,0-.8,0-1.2,.02-2.35,.02-2.37,2.36-2.37,8.15,0,16.31,0,24.46,0,2.29,0,2.31,.02,2.31,2.43,0,42.61,0,85.22,0,127.82,0,.48,0,.96-.03,1.44-.04,.66-.4,1.03-1.06,1.06-.56,.03-1.12,.03-1.68,.03-7.91,0-15.83,0-23.74,0-.48,0-.96-.02-1.44,0-.78,.01-1.19-.35-1.18-1.15,0-.64,0-1.28,0-1.92,0-21.1,0-42.21,0-63.31Z"/>
      <path class="cls-1" d="M231.26,163.44c5.7,0,11.13,.01,16.57-.01,.92,0,1.38,.26,1.74,1.19,5.08,13.06,10.2,26.11,15.33,39.15,1.13,2.87,2.29,5.71,3.59,8.95,1.29-3.24,2.44-6.12,3.58-8.99,4.69-11.85,9.37-23.7,14.05-35.55,.5-1.26,.97-2.53,1.45-3.79,.25-.67,.69-.96,1.45-.96,5.28,.03,10.55,.03,15.83,0,.98,0,1.25,.45,1.19,1.32-.03,.4,0,.8,0,1.2,0,21.75,0,43.49,0,65.24v2.32h-6.83c-2.4,0-4.8,.02-7.2,0-1.62-.01-1.62-.04-1.65-1.74,0-.4,0-.8,0-1.2,0-12.63,0-25.26,0-37.89,0-.88,0-1.75,0-2.83-.82,.5-.9,1.22-1.12,1.82-4.63,12.89-9.26,25.78-13.87,38.68-1.13,3.16-1.11,3.17-4.38,3.17-2.16,0-4.32-.11-6.47,.04-1.38,.09-1.99-.41-2.42-1.66-1.62-4.75-3.32-9.47-5-14.19-3.01-8.48-6.03-16.96-9.05-25.43-.17-.48-.2-1.12-.89-1.21-.09,.04-.17,.06-.22,.11-.06,.05-.11,.13-.13,.2-.04,.15-.08,.3-.09,.46-.02,.24-.02,.48-.02,.72,0,13.51-.02,27.02-.03,40.53,0,.07-.06,.13-.15,.32h-15.24v-69.95Z"/>
      <path class="cls-1" d="M406.48,227.74c-2.65,3.02-5.58,5.26-9.4,6.07-6.73,1.44-12.83-.17-18.22-4.32-5.34-4.11-8.03-9.77-9-16.33-.79-5.35-.7-10.64,1.03-15.81,2.97-8.85,9-14.43,18.2-16.07,6.21-1.11,11.88,.43,16.45,5.1,.19,.19,.27,.58,.94,.46v-2.23c0-6.64,0-13.27,0-19.91,0-1.84,.02-1.87,1.79-1.88,3.92-.02,7.84,.03,11.76-.03,1.05-.01,1.48,.3,1.34,1.36-.05,.39,0,.8,0,1.2,0,21.83,0,43.66,0,65.49,0,.56-.02,1.12,0,1.68,.03,.69-.22,1.01-.95,1-4.32-.02-8.64-.01-12.95,0-.7,0-.99-.31-.98-1.01,.02-1.58,0-3.17,0-4.75Zm.53-18.85c-.02-3.22-.07-5.36-.68-7.46-1.38-4.72-5.14-8.08-9.38-8.39-6.29-.47-10.05,2.43-11.67,6.43-2.2,5.42-2.14,10.93,.07,16.29,1.66,4.02,4.96,6.21,9.27,6.51,4.07,.28,7.51-1.13,9.88-4.65,2-2.97,2.6-6.29,2.52-8.73Z"/>
      <path class="cls-1" d="M488.75,226.62c-.8,.69-1.64,1.28-2.32,2.01-2.41,2.62-5.39,4.21-8.82,4.99-5.01,1.14-9.93,.98-14.74-1.04-7.12-3-9.46-9.85-8.76-16.45,.67-6.28,4.61-9.72,10.33-11.51,5.25-1.65,10.72-2.29,16.1-3.29,1.81-.33,3.56-.81,5.31-1.39,1.07-.35,1.3-.98,1.24-1.98-.18-2.97-2.13-5.21-5.07-5.86-1.98-.44-3.93-.45-5.91,.01-2.42,.56-4.26,1.8-4.93,4.32-.19,.72-.44,1.1-1.26,1.1-4.3-.03-8.59-.01-12.9-.01,.47-8.6,5.51-14.02,13.94-15.76,5.97-1.23,12.03-1.2,18.02,.26,6.87,1.68,11.33,6.56,12.41,13.58,.39,2.52,.59,5.06,.57,7.62-.04,5.36,0,10.72-.02,16.07,0,2.37,.29,4.52,3.13,5.17,.69,.16,.73,.73,.72,1.33-.02,2.08-.04,4.16,0,6.24,.02,.88-.32,1.28-1.17,1.47-4.62,1-9.05,.74-13.08-1.97-1.74-1.17-2.35-3.08-2.82-4.91Zm-1.66-18.3c-1.6,.54-2.86,1.02-4.15,1.38-1.37,.39-2.77,.73-4.17,.98-2.11,.39-4.22,.76-6.2,1.62-2.72,1.18-3.88,3.01-3.71,5.76,.16,2.65,1.67,4.46,4.4,5.28,4.54,1.37,11.14-1.35,13.43-5.52,.28-.51,.4-1.02,.4-1.59,0-2.55,0-5.09,0-7.92Z"/>
      <path class="cls-1" d="M328.14,212.24c.51,7.68,5.27,10.94,10.76,11.02,1.67,.02,3.32,.04,4.99-.35,2.28-.53,4.18-1.54,5.51-3.46,.45-.65,.87-1.01,1.7-1,3.82,.04,7.65,.02,11.69,.02-.55,2.78-1.76,5.05-3.23,7.21-2.48,3.65-5.98,6.01-10.13,7.21-6.64,1.92-13.32,2.15-19.94-.27-7.87-2.87-12.92-8.37-14.9-16.46-1.65-6.76-1.64-13.55,1.01-20.13,3.17-7.88,9.15-12.53,17.29-14.35,5.78-1.29,11.55-1.01,17.12,1.29,5.72,2.36,9.5,6.54,11.77,12.21,1.96,4.9,2.45,10.03,2.45,15.23,0,1.79-.04,1.81-1.88,1.82-10.56,.01-21.11,0-31.67,0h-2.56Zm11-9.13c3.28,0,6.55,0,9.83,0,.72,0,1.35-.12,1.16-1.03-.39-1.86-.71-3.74-1.72-5.42-2.6-4.31-7.09-5.5-12.58-4.25-4.83,1.1-6.88,5.56-7.69,9.46-.2,.96,.24,1.26,1.16,1.25,3.28-.03,6.55-.01,9.83-.01Z"/>
      <path class="cls-1" d="M446.31,207.51c0,8.07,0,16.14,0,24.21,0,1.91,.09,1.79-1.84,1.79-3.76,0-7.51,0-11.27,0-1.73,0-1.77-.03-1.77-1.65,0-16.22,0-32.44,0-48.67,0-1.63,.03-1.65,1.76-1.66,3.68-.02,7.35,0,11.03,0,2.29,0,2.09-.22,2.09,2.02,0,7.99,0,15.98,0,23.97Z"/>
      <path class="cls-1" d="M446.17,173.85c-4.55,0-9.02-.01-13.48,.01-.9,0-1.29-.29-1.28-1.24,.04-2.95,.03-5.91,0-8.86,0-.9,.28-1.29,1.23-1.29,4.47,.03,8.93,.01,13.53,.01v11.36Z"/>
    </g>
  </g>
</svg>