<svg width="24" height="25" viewBox="0 0 24 25" fill="none" xmlns="http://www.w3.org/2000/svg">
<path d="M21.71 20.7899L18 17.1099C19.4401 15.3143 20.1375 13.0352 19.9488 10.7412C19.7601 8.44721 18.6997 6.31269 16.9855 4.77655C15.2714 3.24041 13.0338 2.41941 10.7329 2.48237C8.43207 2.54534 6.24275 3.48747 4.61517 5.11505C2.98759 6.74263 2.04546 8.93194 1.9825 11.2328C1.91954 13.5337 2.74053 15.7713 4.27667 17.4854C5.81281 19.1996 7.94733 20.26 10.2413 20.4487C12.5353 20.6374 14.8144 19.94 16.61 18.4999L20.29 22.1799C20.383 22.2736 20.4936 22.348 20.6154 22.3988C20.7373 22.4496 20.868 22.4757 21 22.4757C21.132 22.4757 21.2627 22.4496 21.3846 22.3988C21.5065 22.348 21.6171 22.2736 21.71 22.1799C21.8903 21.9934 21.991 21.7442 21.991 21.4849C21.991 21.2256 21.8903 20.9764 21.71 20.7899ZM11 18.4999C9.61556 18.4999 8.26218 18.0894 7.11103 17.3202C5.95989 16.551 5.06268 15.4578 4.53287 14.1787C4.00306 12.8996 3.86443 11.4921 4.13453 10.1343C4.40463 8.77641 5.07131 7.52912 6.05028 6.55016C7.02925 5.57119 8.27653 4.9045 9.63439 4.63441C10.9923 4.36431 12.3997 4.50293 13.6788 5.03275C14.9579 5.56256 16.0511 6.45977 16.8203 7.61091C17.5895 8.76206 18 10.1154 18 11.4999C18 13.3564 17.2625 15.1369 15.9498 16.4497C14.637 17.7624 12.8565 18.4999 11 18.4999Z" fill="#F5F5F5"/>
</svg>
