<svg width="18.000488" height="15.000000" viewBox="0 0 18.0005 15" fill="none" xmlns="http://www.w3.org/2000/svg" xmlns:xlink="http://www.w3.org/1999/xlink">
	<desc>
			Created with Pixso.
	</desc>
	<defs/>
	<path id="Vector" d="M11.56 11.55C11.56 10.95 11.56 10.36 11.56 9.76C11.57 9.63 11.53 9.58 11.41 9.56C10.52 9.41 9.63 9.38 8.73 9.48C7.16 9.65 5.7 10.2 4.34 11.08C2.82 12.06 1.53 13.33 0.43 14.84C0.35 14.95 0.26 15.03 0.13 14.98C-0.01 14.93 -0.01 14.8 0 14.67C0.1 13.05 0.41 11.49 1.05 10.02C1.96 7.91 3.4 6.37 5.26 5.32C6.83 4.44 8.5 3.99 10.25 3.82C10.64 3.79 11.03 3.76 11.42 3.76C11.54 3.76 11.56 3.72 11.56 3.6C11.56 2.54 11.56 1.47 11.56 0.41C11.56 0.25 11.58 0.1 11.73 0.02C11.89 -0.05 12.01 0.03 12.12 0.15C12.76 0.88 13.4 1.59 14.04 2.31C15.14 3.53 16.23 4.75 17.33 5.97C17.51 6.17 17.69 6.37 17.87 6.58C18.04 6.76 18.04 6.94 17.87 7.12C17.13 7.95 16.39 8.78 15.65 9.61C14.49 10.9 13.33 12.2 12.18 13.49C12.14 13.52 12.11 13.56 12.08 13.6C11.99 13.71 11.88 13.75 11.75 13.69C11.62 13.63 11.56 13.52 11.56 13.36C11.56 13.02 11.56 12.68 11.56 12.33C11.56 12.07 11.56 11.81 11.56 11.55L11.56 11.55Z" fill="#DBDBDB" fill-opacity="1.000000" fill-rule="nonzero"/>
</svg>
