<svg width="25" height="25" viewBox="0 0 25 25" fill="none" xmlns="http://www.w3.org/2000/svg">
<g id="u:angle-right-b">
<path id="Vector" d="M16.5007 11.79L10.8407 6.14004C10.7477 6.04631 10.6371 5.97191 10.5153 5.92115C10.3934 5.87038 10.2627 5.84424 10.1307 5.84424C9.99866 5.84424 9.86796 5.87038 9.7461 5.92115C9.62424 5.97191 9.51364 6.04631 9.42068 6.14004C9.23442 6.3274 9.12988 6.58085 9.12988 6.84504C9.12988 7.10922 9.23442 7.36267 9.42068 7.55004L14.3707 12.55L9.42068 17.5C9.23442 17.6874 9.12988 17.9409 9.12988 18.205C9.12988 18.4692 9.23442 18.7227 9.42068 18.91C9.51329 19.0045 9.62373 19.0797 9.74561 19.1312C9.86749 19.1827 9.99837 19.2095 10.1307 19.21C10.263 19.2095 10.3939 19.1827 10.5157 19.1312C10.6376 19.0797 10.7481 19.0045 10.8407 18.91L16.5007 13.26C16.6022 13.1664 16.6832 13.0527 16.7386 12.9262C16.794 12.7997 16.8226 12.6631 16.8226 12.525C16.8226 12.3869 16.794 12.2503 16.7386 12.1238C16.6832 11.9973 16.6022 11.8837 16.5007 11.79Z" fill="#DBDBDB"/>
</g>
</svg>
