<svg width="24.000000" height="24.000000" viewBox="0 0 24 24" fill="none" xmlns="http://www.w3.org/2000/svg" xmlns:xlink="http://www.w3.org/1999/xlink">
	<desc>
			Created with Pixso.
	</desc>
	<defs>
		<clipPath id="clip2178_4477">
			<rect id="u:eye" width="24.000000" height="24.000000" fill="white" fill-opacity="0"/>
		</clipPath>
	</defs>
	<g clip-path="url(#clip2178_4477)">
		<path id="Vector" d="M21.91 11.6C19.89 6.91 16.1 4 12 4C7.89 4 4.1 6.91 2.08 11.6C2.02 11.72 1.99 11.86 1.99 12C1.99 12.13 2.02 12.27 2.08 12.4C4.1 17.09 7.89 20 12 20C16.1 20 19.89 17.09 21.91 12.4C21.97 12.27 22 12.13 22 12C22 11.86 21.97 11.72 21.91 11.6ZM12 18C8.83 18 5.83 15.71 4.1 12C5.83 8.29 8.83 6 12 6C15.16 6 18.16 8.29 19.89 12C18.16 15.71 15.16 18 12 18ZM12 8C11.2 8 10.43 8.23 9.77 8.67C9.12 9.11 8.6 9.73 8.3 10.46C8 11.2 7.92 12 8.07 12.78C8.23 13.55 8.61 14.26 9.17 14.82C9.73 15.38 10.44 15.76 11.21 15.92C11.99 16.07 12.79 15.99 13.53 15.69C14.26 15.39 14.88 14.88 15.32 14.22C15.76 13.56 16 12.79 16 12C16 10.93 15.57 9.92 14.82 9.17C14.07 8.42 13.06 8 12 8ZM12 14C11.6 14 11.21 13.88 10.88 13.66C10.56 13.44 10.3 13.13 10.15 12.76C10 12.39 9.96 11.99 10.03 11.6C10.11 11.22 10.3 10.86 10.58 10.58C10.86 10.3 11.22 10.11 11.6 10.03C11.99 9.96 12.39 10 12.76 10.15C13.13 10.3 13.44 10.55 13.66 10.88C13.88 11.21 14 11.6 14 12C14 12.53 13.78 13.03 13.41 13.41C13.03 13.78 12.53 14 12 14Z" fill="#757575" fill-opacity="1.000000" fill-rule="nonzero"/>
	</g>
</svg>
