<svg width="19" height="19" viewBox="0 0 19 19" fill="none" xmlns="http://www.w3.org/2000/svg">
<path d="M13.5316 4.60616C13.3589 4.60616 13.1902 4.65736 13.0466 4.75327C12.9031 4.8492 12.7912 4.98553 12.7251 5.14504C12.659 5.30455 12.6417 5.48007 12.6754 5.6494C12.7091 5.81873 12.7922 5.97428 12.9143 6.09636C13.0364 6.21844 13.1919 6.30158 13.3613 6.33527C13.5306 6.36895 13.7061 6.35166 13.8656 6.28559C14.0252 6.21952 14.1615 6.10763 14.2574 5.96408C14.3533 5.82052 14.4045 5.65175 14.4045 5.4791C14.4045 5.24758 14.3126 5.02554 14.1488 4.86184C13.9851 4.69813 13.7631 4.60616 13.5316 4.60616ZM16.8779 6.36659C16.8637 5.76302 16.7507 5.16586 16.5432 4.59888C16.3583 4.11377 16.0704 3.6745 15.6994 3.3113C15.3392 2.93842 14.8989 2.65235 14.4118 2.47473C13.8463 2.26098 13.2485 2.14535 12.6441 2.13283C11.873 2.08918 11.6257 2.08918 9.647 2.08918C7.66834 2.08918 7.421 2.08918 6.64991 2.13283C6.0455 2.14535 5.44768 2.26098 4.8822 2.47473C4.39603 2.65415 3.95611 2.93998 3.59461 3.3113C3.22174 3.67151 2.93567 4.11181 2.75805 4.59888C2.54429 5.16436 2.42866 5.76219 2.41614 6.36659C2.3725 7.13768 2.3725 7.38502 2.3725 9.36368C2.3725 11.3423 2.3725 11.5897 2.41614 12.3608C2.42866 12.9652 2.54429 13.563 2.75805 14.1285C2.93567 14.6156 3.22174 15.0559 3.59461 15.4161C3.95611 15.7874 4.39603 16.0732 4.8822 16.2526C5.44768 16.4664 6.0455 16.582 6.64991 16.5945C7.421 16.6382 7.66834 16.6382 9.647 16.6382C11.6257 16.6382 11.873 16.6382 12.6441 16.5945C13.2485 16.582 13.8463 16.4664 14.4118 16.2526C14.8989 16.075 15.3392 15.7889 15.6994 15.4161C16.072 15.0542 16.3602 14.6146 16.5432 14.1285C16.7507 13.5615 16.8637 12.9643 16.8779 12.3608C16.8779 11.5897 16.9215 11.3423 16.9215 9.36368C16.9215 7.38502 16.9215 7.13768 16.8779 6.36659ZM15.5684 12.2735C15.5631 12.7352 15.4795 13.1928 15.3211 13.6265C15.205 13.9431 15.0184 14.2292 14.7755 14.4631C14.5396 14.7035 14.2541 14.8897 13.939 15.0087C13.5052 15.1671 13.0477 15.2507 12.5859 15.256C11.8584 15.2924 11.5893 15.2997 9.6761 15.2997C7.7629 15.2997 7.49375 15.2997 6.7663 15.256C6.28683 15.265 5.80941 15.1912 5.35504 15.0378C5.05372 14.9127 4.78134 14.727 4.55485 14.4922C4.3134 14.2585 4.12918 13.9722 4.01654 13.6556C3.83893 13.2156 3.74043 12.7477 3.72555 12.2735C3.72555 11.546 3.68191 11.2769 3.68191 9.36368C3.68191 7.45049 3.68191 7.18133 3.72555 6.45388C3.72882 5.98181 3.815 5.51398 3.98016 5.07173C4.10823 4.76468 4.3048 4.49097 4.55485 4.27153C4.77586 4.02141 5.049 3.82276 5.35504 3.68957C5.79846 3.52956 6.26581 3.44593 6.7372 3.44224C7.46465 3.44224 7.73381 3.39859 9.647 3.39859C11.5602 3.39859 11.8294 3.39859 12.5568 3.44224C13.0186 3.44753 13.4761 3.53117 13.9099 3.68957C14.2404 3.81226 14.5371 4.01172 14.7755 4.27153C15.0139 4.49499 15.2002 4.76818 15.3211 5.07173C15.4828 5.51469 15.5665 5.98233 15.5684 6.45388C15.6048 7.18133 15.6121 7.45049 15.6121 9.36368C15.6121 11.2769 15.6048 11.546 15.5684 12.2735ZM9.647 5.63186C8.90923 5.6333 8.18844 5.85339 7.5757 6.26432C6.96296 6.67525 6.48578 7.25858 6.20444 7.94061C5.9231 8.62264 5.85024 9.37275 5.99505 10.0962C6.13986 10.8196 6.49586 11.4839 7.01805 12.005C7.54024 12.5262 8.2052 12.8809 8.9289 13.0243C9.65261 13.1677 10.4026 13.0934 11.0841 12.8107C11.7655 12.5281 12.3479 12.0497 12.7577 11.4362C13.1674 10.8227 13.3861 10.1015 13.3861 9.36368C13.3871 8.87273 13.2909 8.38643 13.1033 7.93276C12.9156 7.47908 12.6401 7.06698 12.2926 6.72017C11.9451 6.37335 11.5325 6.09865 11.0785 5.91188C10.6244 5.72511 10.1379 5.62994 9.647 5.63186ZM9.647 11.7861C9.16789 11.7861 8.69954 11.644 8.30118 11.3778C7.90282 11.1117 7.59233 10.7333 7.40899 10.2907C7.22564 9.84806 7.17767 9.361 7.27114 8.89109C7.36461 8.42119 7.59532 7.98956 7.9341 7.65078C8.27288 7.312 8.70451 7.08129 9.17441 6.98782C9.64431 6.89435 10.1314 6.94232 10.574 7.12567C11.0167 7.30901 11.395 7.6195 11.6612 8.01786C11.9273 8.41623 12.0694 8.88458 12.0694 9.36368C12.0694 9.6818 12.0068 9.9968 11.885 10.2907C11.7633 10.5846 11.5848 10.8516 11.3599 11.0766C11.135 11.3015 10.8679 11.48 10.574 11.6017C10.2801 11.7234 9.96512 11.7861 9.647 11.7861Z" fill="#A8A8A8"/>
</svg>
