<svg width="25" height="25" viewBox="0 0 25 25" fill="none" xmlns="http://www.w3.org/2000/svg">
<path d="M12.4941 2.5C10.5163 2.5 8.58293 3.08649 6.93844 4.1853C5.29395 5.28412 4.01223 6.8459 3.25535 8.67317C2.49847 10.5004 2.30044 12.5111 2.68629 14.4509C3.07214 16.3907 4.02455 18.1725 5.42308 19.5711C6.8216 20.9696 8.60343 21.922 10.5432 22.3079C12.4831 22.6937 14.4937 22.4957 16.321 21.7388C18.1482 20.9819 19.71 19.7002 20.8088 18.0557C21.9077 16.4112 22.4941 14.4778 22.4941 12.5C22.4943 11.1868 22.2357 9.88634 21.7332 8.67304C21.2307 7.45973 20.4941 6.3573 19.5655 5.42869C18.6368 4.50008 17.5344 3.76349 16.3211 3.26098C15.1078 2.75847 13.8074 2.49989 12.4941 2.5ZM15.6737 17.6525C15.6362 17.7458 15.5793 17.83 15.5066 17.8996C15.434 17.9691 15.3473 18.0223 15.2524 18.0556C15.1575 18.0889 15.0566 18.1015 14.9565 18.0926C14.8563 18.0837 14.7592 18.0535 14.6717 18.004L11.957 15.8946L10.2147 17.502C10.1742 17.5319 10.1269 17.5511 10.0771 17.5579C10.0273 17.5647 9.97662 17.5589 9.92967 17.5409L10.2637 14.5525L10.2744 14.561L10.2812 14.502C10.2812 14.502 15.1662 10.0544 15.3652 9.86496C15.5667 9.67596 15.5002 9.63496 15.5002 9.63496C15.5117 9.40443 15.1387 9.63496 15.1387 9.63496L8.66614 13.799L5.97066 12.881C5.97066 12.881 5.55666 12.7325 5.51766 12.406C5.47666 12.082 5.98415 11.906 5.98415 11.906L16.7011 7.64849C16.7011 7.64849 17.5821 7.25597 17.5821 7.906L15.6737 17.6525Z" fill="#0D7AC9"/>
</svg>
