<svg width="18" height="19" viewBox="0 0 18 19" fill="none" xmlns="http://www.w3.org/2000/svg">
<g clip-path="url(#clip0_2134_1437)">
<path d="M17.1838 3.50785C17.1839 3.37936 17.1499 3.25314 17.0854 3.14205C17.0208 3.03096 16.9279 2.93896 16.8163 2.87543C16.7046 2.8119 16.578 2.7791 16.4496 2.78038C16.3211 2.78165 16.1952 2.81696 16.0848 2.8827C15.659 3.13613 15.2006 3.33021 14.7223 3.45956C14.0392 2.87341 13.168 2.55265 12.2679 2.55593C11.2804 2.55707 10.3321 2.94191 9.62303 3.6292C8.914 4.31649 8.49983 5.25242 8.46795 6.23936C6.52128 5.92893 4.75696 4.91288 3.51143 3.38495C3.43639 3.2939 3.34054 3.22223 3.23199 3.17599C3.12344 3.12974 3.00535 3.11028 2.8877 3.11925C2.77012 3.12893 2.65666 3.16711 2.55714 3.23048C2.45762 3.29386 2.37504 3.38052 2.31654 3.48297C2.01648 4.0066 1.84415 4.59361 1.81354 5.19634C1.78293 5.79907 1.8949 6.40052 2.14036 6.95186L2.13894 6.95327C2.02862 7.02122 1.93757 7.11634 1.87451 7.22952C1.81145 7.34271 1.77848 7.47018 1.77876 7.59975C1.77743 7.70663 1.78384 7.81347 1.79794 7.91942C1.87224 8.83475 2.2779 9.69153 2.93885 10.3291C2.89401 10.4145 2.86665 10.508 2.85835 10.6041C2.85006 10.7003 2.861 10.7971 2.89054 10.8889C3.17869 11.7867 3.79148 12.5446 4.609 13.0144C3.77843 13.3356 2.88161 13.4476 1.99756 13.3405C1.83394 13.32 1.6682 13.3556 1.52752 13.4417C1.38685 13.5277 1.27959 13.6591 1.22335 13.8141C1.16711 13.9691 1.16522 14.1386 1.218 14.2949C1.27078 14.4511 1.37508 14.5847 1.51381 14.6739C3.03425 15.6532 4.80456 16.1738 6.61307 16.1736C8.66394 16.1967 10.6649 15.5413 12.3048 14.3095C13.9447 13.0776 15.1315 11.3384 15.6806 9.36223C15.9374 8.50139 16.0686 7.60796 16.0699 6.70962C16.0699 6.66203 16.0699 6.61301 16.0692 6.56399C16.449 6.15439 16.7432 5.67309 16.9346 5.1483C17.126 4.62352 17.2107 4.0658 17.1838 3.50785ZM14.7784 5.84436C14.6582 5.98646 14.5974 6.16938 14.6086 6.35514C14.6157 6.47517 14.615 6.59592 14.615 6.70962C14.6135 7.46875 14.5022 8.22367 14.2847 8.95094C13.8362 10.6324 12.8364 12.1146 11.4455 13.1604C10.0545 14.2062 8.3529 14.7549 6.61307 14.7187C5.9881 14.7189 5.36529 14.6454 4.7575 14.4999C5.53254 14.2501 6.25721 13.865 6.89794 13.3625C7.01595 13.2696 7.10232 13.1425 7.14519 12.9985C7.18806 12.8545 7.18534 12.7009 7.1374 12.5585C7.08945 12.4162 6.99864 12.2921 6.87741 12.2035C6.75618 12.1148 6.61048 12.0658 6.4603 12.0632C5.85567 12.0538 5.27829 11.8101 4.84982 11.3834C4.95852 11.3628 5.0665 11.3372 5.17377 11.3066C5.33091 11.2619 5.46842 11.1656 5.56417 11.0332C5.65991 10.9008 5.70832 10.7401 5.70159 10.5768C5.69486 10.4136 5.6334 10.2574 5.52708 10.1333C5.42077 10.0092 5.2758 9.92458 5.11552 9.89293C4.76455 9.82362 4.43429 9.6743 4.15042 9.45659C3.86655 9.23888 3.6367 8.95864 3.47875 8.63765C3.61023 8.65559 3.74254 8.66674 3.87516 8.67104C4.03271 8.67342 4.18694 8.62563 4.31554 8.53457C4.44414 8.44352 4.54044 8.31392 4.59053 8.16452C4.63853 8.01377 4.63606 7.85148 4.5835 7.70225C4.53094 7.55303 4.43115 7.42501 4.29927 7.33762C3.9793 7.12445 3.71719 6.83525 3.53643 6.49592C3.35567 6.15659 3.26189 5.77773 3.2635 5.39326C3.2635 5.34496 3.26492 5.29665 3.26777 5.24905C4.89817 6.7696 7.01291 7.66596 9.2394 7.7802C9.35179 7.78463 9.46372 7.76346 9.56672 7.7183C9.66973 7.67313 9.76113 7.60515 9.83402 7.51949C9.90616 7.433 9.95725 7.33094 9.98325 7.22135C10.0093 7.11176 10.0095 6.99763 9.98387 6.88794C9.94227 6.71435 9.92105 6.53649 9.92065 6.35798C9.92131 5.73567 10.1688 5.13904 10.6089 4.69901C11.0489 4.25897 11.6455 4.01147 12.2678 4.01081C12.588 4.00995 12.9049 4.07548 13.1985 4.20326C13.492 4.33103 13.7559 4.51828 13.9735 4.75318C14.0574 4.84345 14.163 4.91074 14.2803 4.94867C14.3975 4.9866 14.5225 4.9939 14.6434 4.96988C14.9422 4.91173 15.2368 4.83341 15.525 4.73545C15.3284 5.13771 15.0771 5.51088 14.7784 5.84436Z" fill="#A8A8A8"/>
</g>
<defs>
<clipPath id="clip0_2134_1437">
<rect width="17.4588" height="17.4588" fill="white" transform="translate(0.458801 0.634277)"/>
</clipPath>
</defs>
</svg>
