<svg width="17.458740" height="17.458740" viewBox="0 0 17.4587 17.4587" fill="none" xmlns="http://www.w3.org/2000/svg" xmlns:xlink="http://www.w3.org/1999/xlink">
	<desc>
			Created with Pixso.
	</desc>
	<defs>
		<clipPath id="clip209_4340">
			<rect id="u:youtube" width="17.458805" height="17.458805" fill="white" fill-opacity="0"/>
		</clipPath>
	</defs>
	<rect id="u:youtube" width="17.458805" height="17.458805" fill="#FFFFFF" fill-opacity="0"/>
	<g clip-path="url(#clip209_4340)">
		<path id="Vector" d="M16.06 4.05C15.75 3.67 15.3 3.42 14.81 3.33C12.79 3.14 10.76 3.07 8.72 3.1C6.7 3.07 4.67 3.14 2.66 3.32C2.26 3.39 1.89 3.58 1.6 3.86C0.94 4.46 0.87 5.49 0.79 6.37C0.69 7.94 0.69 9.51 0.79 11.08C0.82 11.57 0.89 12.06 1.01 12.54C1.1 12.9 1.28 13.24 1.53 13.53C1.83 13.82 2.2 14.02 2.61 14.09C4.18 14.29 5.76 14.37 7.34 14.33C9.89 14.37 12.12 14.33 14.76 14.13C15.18 14.06 15.57 13.86 15.87 13.56C16.08 13.36 16.23 13.11 16.32 12.83C16.58 12.04 16.71 11.2 16.7 10.36C16.73 9.95 16.73 7.5 16.73 7.06C16.76 6.02 16.53 4.98 16.06 4.05ZM7.08 6.29L11.39 8.56C10.18 9.23 8.59 9.98 7.08 10.8L7.08 6.29Z" stroke="#A8A8A8" stroke-opacity="1.000000" stroke-width="1.454901"/>
	</g>
</svg>
