<svg width="30" height="31" viewBox="0 0 30 31" fill="none" xmlns="http://www.w3.org/2000/svg">
<path d="M22.1798 8.65215C22.0542 8.34972 21.8138 8.10938 21.5114 7.98378C21.3626 7.92036 21.2028 7.88672 21.0411 7.88477H8.66384C8.33558 7.88477 8.02076 8.01517 7.78864 8.24729C7.55652 8.4794 7.42612 8.79422 7.42612 9.12249C7.42612 9.45075 7.55652 9.76557 7.78864 9.99769C8.02076 10.2298 8.33558 10.3602 8.66384 10.3602H18.0582L7.78506 20.6209C7.66905 20.736 7.57697 20.8729 7.51413 21.0237C7.4513 21.1745 7.41895 21.3363 7.41895 21.4997C7.41895 21.6631 7.4513 21.8249 7.51413 21.9757C7.57697 22.1265 7.66905 22.2634 7.78506 22.3785C7.90012 22.4945 8.03702 22.5866 8.18784 22.6494C8.33867 22.7123 8.50045 22.7446 8.66384 22.7446C8.82724 22.7446 8.98902 22.7123 9.13984 22.6494C9.29067 22.5866 9.42756 22.4945 9.54263 22.3785L19.8033 12.1054V21.4997C19.8033 21.828 19.9337 22.1428 20.1659 22.3749C20.398 22.607 20.7128 22.7374 21.0411 22.7374C21.3693 22.7374 21.6841 22.607 21.9163 22.3749C22.1484 22.1428 22.2788 21.828 22.2788 21.4997V9.12249C22.2768 8.96075 22.2432 8.80095 22.1798 8.65215Z" fill="#F0CA56"/>
</svg>
